<svg width="280" height="280" viewBox="0 0 280 280" fill="none" xmlns="http://www.w3.org/2000/svg">
<path d="M140 0C217.32 0 280 62.6801 280 140C280 217.32 217.32 280 140 280C62.6801 280 0 217.32 0 140C0 62.6801 62.6801 0 140 0ZM140 15C70.9644 15 15 70.9644 15 140C15 209.036 70.9644 265 140 265C209.036 265 265 209.036 265 140C265 70.9644 209.036 15 140 15Z" fill="url(#paint0_linear_8_99)"/>
<path d="M139.497 29C201.078 29.0001 251 78.921 251 140.502C251 169.708 239.769 196.29 221.393 216.169C220.131 172.023 183.948 136.624 139.497 136.624C95.0455 136.624 58.8621 172.024 57.6006 216.17C39.2242 196.291 27.9941 169.708 27.9941 140.502C27.9942 78.921 77.9157 29 139.497 29ZM139.496 46.4521C117.273 46.4523 99.2579 64.4679 99.2578 86.6904C99.2581 108.913 117.274 126.928 139.496 126.928C161.719 126.928 179.734 108.913 179.734 86.6904C179.734 64.4678 161.719 46.4521 139.496 46.4521Z" fill="url(#paint1_linear_8_99)"/>
<defs>
<linearGradient id="paint0_linear_8_99" x1="280" y1="140" x2="0" y2="140" gradientUnits="userSpaceOnUse">
<stop stop-color="#8BFFFD"/>
<stop offset="0.5" stop-color="#EA2AFF"/>
<stop offset="1" stop-color="#085BFF"/>
</linearGradient>
<linearGradient id="paint1_linear_8_99" x1="139.497" y1="29" x2="139.497" y2="216.17" gradientUnits="userSpaceOnUse">
<stop stop-color="#57E6FF"/>
<stop offset="1" stop-color="#FF7EF9"/>
</linearGradient>
</defs>
</svg>
